<svg xmlns="http://www.w3.org/2000/svg" style="display:none">
  <symbol id="i-trophy" viewBox="0 0 24 24" fill="none" stroke="currentColor" stroke-width="1.5" stroke-linecap="round" stroke-linejoin="round"><path d="M6 9H4a2 2 0 01-2-2V5a2 2 0 012-2h2M18 9h2a2 2 0 002-2V5a2 2 0 00-2-2h-2M6 3h12v6a6 6 0 01-12 0V3zM12 15v3M8 21h8M10 18h4"/></symbol>
  <symbol id="i-chart" viewBox="0 0 24 24" fill="none" stroke="currentColor" stroke-width="1.5" stroke-linecap="round" stroke-linejoin="round"><path d="M3 3v18h18M7 16V10M12 16V6M17 16v-4"/></symbol>
  <symbol id="i-flame" viewBox="0 0 24 24" fill="none" stroke="currentColor" stroke-width="1.5" stroke-linecap="round" stroke-linejoin="round"><path d="M12 22c4.418 0 7-2.686 7-7.5 0-3.5-2-6-3.5-7.5-.317-.317-.758.091-.633.503C15.28 9 14.5 10 13 10c0-3.5-2.5-6-5-8 0 3-1 5.5-3 8-1.5 1.875-2 4.063-2 5.5C3 19.314 5.582 22 10 22h2z"/></symbol>
  <symbol id="i-calendar" viewBox="0 0 24 24" fill="none" stroke="currentColor" stroke-width="1.5" stroke-linecap="round" stroke-linejoin="round"><rect x="3" y="4" width="18" height="18" rx="2"/><path d="M3 10h18M8 2v4M16 2v4"/></symbol>
  <symbol id="i-users" viewBox="0 0 24 24" fill="none" stroke="currentColor" stroke-width="1.5" stroke-linecap="round" stroke-linejoin="round"><path d="M17 21v-2a4 4 0 00-4-4H5a4 4 0 00-4 4v2"/><circle cx="9" cy="7" r="4"/><path d="M23 21v-2a4 4 0 00-3-3.87M16 3.13a4 4 0 010 7.75"/></symbol>
  <symbol id="i-gift" viewBox="0 0 24 24" fill="none" stroke="currentColor" stroke-width="1.5" stroke-linecap="round" stroke-linejoin="round"><rect x="3" y="8" width="18" height="4" rx="1"/><path d="M12 8v13M19 12v7a2 2 0 01-2 2H7a2 2 0 01-2-2v-7"/><path d="M7.5 8a2.5 2.5 0 010-5C9 3 12 6 12 8M16.5 8a2.5 2.5 0 000-5C15 3 12 6 12 8"/></symbol>
  <symbol id="i-clock" viewBox="0 0 24 24" fill="none" stroke="currentColor" stroke-width="1.5" stroke-linecap="round" stroke-linejoin="round"><circle cx="12" cy="12" r="10"/><path d="M12 6v6l4 2"/></symbol>
  <symbol id="i-check-circle" viewBox="0 0 24 24" fill="none" stroke="currentColor" stroke-width="1.5" stroke-linecap="round" stroke-linejoin="round"><circle cx="12" cy="12" r="10"/><path d="M9 12l2 2 4-4"/></symbol>
  <symbol id="i-check-circle-filled" viewBox="0 0 24 24" fill="none"><path d="M10.7396 15.7695L17.0416 9.46739L16.4752 8.90099C16.1173 8.54301 15.5369 8.54301 15.1789 8.90099L10.7396 13.3403L8.82108 11.4218C8.4631 11.0638 7.8827 11.0638 7.52472 11.4218L6.95831 11.9882L10.7396 15.7695Z" fill="currentColor"/><path fill-rule="evenodd" clip-rule="evenodd" d="M21.1666 11.9997C21.1666 17.0623 17.0626 21.1663 12 21.1663C6.93737 21.1663 2.83331 17.0623 2.83331 11.9997C2.83331 6.93706 6.93737 2.83301 12 2.83301C17.0626 2.83301 21.1666 6.93706 21.1666 11.9997ZM19.3333 11.9997C19.3333 16.0498 16.0501 19.333 12 19.333C7.94989 19.333 4.66665 16.0501 4.66665 11.9997C4.66665 7.94959 7.94989 4.66634 12 4.66634C16.0501 4.66634 19.3333 7.94959 19.3333 11.9997Z" fill="currentColor"/></symbol>
  <symbol id="i-alert-triangle" viewBox="0 0 24 24" fill="none" stroke="currentColor" stroke-width="1.5" stroke-linecap="round" stroke-linejoin="round"><path d="M10.29 3.86L1.82 18a2 2 0 001.71 3h16.94a2 2 0 001.71-3L13.71 3.86a2 2 0 00-3.42 0zM12 9v4M12 17h.01"/></symbol>
  <symbol id="i-alert-circle" viewBox="0 0 24 24" fill="none" stroke="currentColor" stroke-width="1.5" stroke-linecap="round" stroke-linejoin="round"><circle cx="12" cy="12" r="10"/><path d="M12 8v4M12 16h.01"/></symbol>
  <symbol id="i-lightbulb" viewBox="0 0 24 24" fill="none" stroke="currentColor" stroke-width="1.5" stroke-linecap="round" stroke-linejoin="round"><path d="M9 18h6M10 22h4M12 2a7 7 0 00-4 12.7V17a1 1 0 001 1h6a1 1 0 001-1v-2.3A7 7 0 0012 2z"/></symbol>
  <symbol id="i-info" viewBox="0 0 24 24" fill="none" stroke="currentColor" stroke-width="1.5" stroke-linecap="round" stroke-linejoin="round"><circle cx="12" cy="12" r="10"/><path d="M12 16v-4M12 8h.01"/></symbol>
  <symbol id="i-save" viewBox="0 0 24 24" fill="none" stroke="currentColor" stroke-width="1.5" stroke-linecap="round" stroke-linejoin="round"><path d="M19 21H5a2 2 0 01-2-2V5a2 2 0 012-2h11l5 5v11a2 2 0 01-2 2z"/><path d="M17 21v-8H7v8M7 3v5h8"/></symbol>
  <symbol id="i-rocket" viewBox="0 0 24 24" fill="none" stroke="currentColor" stroke-width="1.5" stroke-linecap="round" stroke-linejoin="round"><path d="M4.5 16.5c-1.5 1.26-2 5-2 5s3.74-.5 5-2c.71-.84.7-2.13-.09-2.91a2.18 2.18 0 00-2.91-.09zM12 15l-3-3M22 2l-7.5 7.5"/><path d="M15 12l2.3 2.3a1 1 0 010 1.4l-3 3a1 1 0 01-1.4 0L9 15M12 9l-2.3-2.3a1 1 0 010-1.4l3-3a1 1 0 011.4 0L18 6"/></symbol>
  <symbol id="i-pause" viewBox="0 0 24 24" fill="none" stroke="currentColor" stroke-width="1.5" stroke-linecap="round" stroke-linejoin="round"><rect x="6" y="4" width="4" height="16" rx="1"/><rect x="14" y="4" width="4" height="16" rx="1"/></symbol>
  <symbol id="i-play" viewBox="0 0 24 24" fill="none" stroke="currentColor" stroke-width="1.5" stroke-linecap="round" stroke-linejoin="round"><path d="M7 5v14l11-7-11-7z" fill="currentColor" stroke="none"/></symbol>
  <symbol id="i-x-circle" viewBox="0 0 24 24" fill="none" stroke="currentColor" stroke-width="1.5" stroke-linecap="round" stroke-linejoin="round"><circle cx="12" cy="12" r="10"/><path d="M15 9l-6 6M9 9l6 6"/></symbol>
  <symbol id="i-edit" viewBox="0 0 24 24" fill="none" stroke="currentColor" stroke-width="1.5" stroke-linecap="round" stroke-linejoin="round"><path d="M11 4H4a2 2 0 00-2 2v14a2 2 0 002 2h14a2 2 0 002-2v-7"/><path d="M18.5 2.5a2.121 2.121 0 013 3L12 15l-4 1 1-4 9.5-9.5z"/></symbol>
  <symbol id="i-clipboard" viewBox="0 0 24 24" fill="none" stroke="currentColor" stroke-width="1.5" stroke-linecap="round" stroke-linejoin="round"><path d="M16 4h2a2 2 0 012 2v14a2 2 0 01-2 2H6a2 2 0 01-2-2V6a2 2 0 012-2h2"/><rect x="8" y="2" width="8" height="4" rx="1"/></symbol>
  <symbol id="i-star" viewBox="0 0 24 24" fill="currentColor" stroke="currentColor" stroke-width="1.5" stroke-linecap="round" stroke-linejoin="round"><polygon points="12 2 15.09 8.26 22 9.27 17 14.14 18.18 21.02 12 17.77 5.82 21.02 7 14.14 2 9.27 8.91 8.26 12 2"/></symbol>
  <symbol id="i-arrow-left" viewBox="0 0 24 24" fill="none" stroke="currentColor" stroke-width="1.5" stroke-linecap="round" stroke-linejoin="round"><path d="M19 12H5M12 19l-7-7 7-7"/></symbol>
  <symbol id="i-plus" viewBox="0 0 24 24" fill="none" stroke="currentColor" stroke-width="1.5" stroke-linecap="round" stroke-linejoin="round"><path d="M12 5v14M5 12h14"/></symbol>
  <symbol id="i-shield" viewBox="0 0 24 24" fill="none" stroke="currentColor" stroke-width="1.5" stroke-linecap="round" stroke-linejoin="round"><path d="M12 22s8-4 8-10V5l-8-3-8 3v7c0 6 8 10 8 10z"/></symbol>
  <symbol id="i-trending-up" viewBox="0 0 24 24" fill="none" stroke="currentColor" stroke-width="1.5" stroke-linecap="round" stroke-linejoin="round"><polyline points="23 6 13.5 15.5 8.5 10.5 1 18"/><polyline points="17 6 23 6 23 12"/></symbol>
  <symbol id="i-trending-down" viewBox="0 0 24 24" fill="none" stroke="currentColor" stroke-width="1.5" stroke-linecap="round" stroke-linejoin="round"><polyline points="23 18 13.5 8.5 8.5 13.5 1 6"/><polyline points="17 18 23 18 23 12"/></symbol>
  <symbol id="i-link" viewBox="0 0 24 24" fill="none" stroke="currentColor" stroke-width="1.5" stroke-linecap="round" stroke-linejoin="round"><path d="M10 13a5 5 0 007.54.54l3-3a5 5 0 00-7.07-7.07l-1.72 1.71"/><path d="M14 11a5 5 0 00-7.54-.54l-3 3a5 5 0 007.07 7.07l1.71-1.71"/></symbol>
  <symbol id="i-download" viewBox="0 0 24 24" fill="none" stroke="currentColor" stroke-width="1.5" stroke-linecap="round" stroke-linejoin="round"><path d="M21 15v4a2 2 0 01-2 2H5a2 2 0 01-2-2v-4M7 10l5 5 5-5M12 15V3"/></symbol>
  <symbol id="i-chevron-right" viewBox="0 0 24 24" fill="none" stroke="currentColor" stroke-width="1.5" stroke-linecap="round" stroke-linejoin="round"><path d="M9 18l6-6-6-6"/></symbol>
  <symbol id="i-eye" viewBox="0 0 24 24" fill="none" stroke="currentColor" stroke-width="1.5" stroke-linecap="round" stroke-linejoin="round"><path d="M1 12s4-8 11-8 11 8 11 8-4 8-11 8-11-8-11-8z"/><circle cx="12" cy="12" r="3"/></symbol>
  <symbol id="i-more" viewBox="0 0 24 24" fill="none" stroke="currentColor" stroke-width="2" stroke-linecap="round" stroke-linejoin="round"><circle cx="12" cy="12" r="1"/><circle cx="19" cy="12" r="1"/><circle cx="5" cy="12" r="1"/></symbol>
  <symbol id="i-flag" viewBox="0 0 24 24" fill="none" stroke="currentColor" stroke-width="1.5" stroke-linecap="round" stroke-linejoin="round"><path d="M4 15s1-1 4-1 5 2 8 2 4-1 4-1V3s-1 1-4 1-5-2-8-2-4 1-4 1z"/><line x1="4" y1="22" x2="4" y2="15"/></symbol>
  <symbol id="i-digit-1" viewBox="0 0 24 24" fill="none"><circle cx="12" cy="12" r="10" stroke="currentColor" stroke-width="1.5"/><text x="12" y="12" text-anchor="middle" dominant-baseline="central" fill="currentColor" font-family="Inter,sans-serif" font-size="12" font-weight="600">1</text></symbol>
  <symbol id="i-digit-2" viewBox="0 0 24 24" fill="none"><circle cx="12" cy="12" r="10" stroke="currentColor" stroke-width="1.5"/><text x="12" y="12" text-anchor="middle" dominant-baseline="central" fill="currentColor" font-family="Inter,sans-serif" font-size="12" font-weight="600">2</text></symbol>
  <symbol id="i-digit-3" viewBox="0 0 24 24" fill="none"><circle cx="12" cy="12" r="10" stroke="currentColor" stroke-width="1.5"/><text x="12" y="12" text-anchor="middle" dominant-baseline="central" fill="currentColor" font-family="Inter,sans-serif" font-size="12" font-weight="600">3</text></symbol>
  <symbol id="i-digit-4" viewBox="0 0 24 24" fill="none"><circle cx="12" cy="12" r="10" stroke="currentColor" stroke-width="1.5"/><text x="12" y="12" text-anchor="middle" dominant-baseline="central" fill="currentColor" font-family="Inter,sans-serif" font-size="12" font-weight="600">4</text></symbol>
  <symbol id="i-digit-5" viewBox="0 0 24 24" fill="none"><circle cx="12" cy="12" r="10" stroke="currentColor" stroke-width="1.5"/><text x="12" y="12" text-anchor="middle" dominant-baseline="central" fill="currentColor" font-family="Inter,sans-serif" font-size="12" font-weight="600">5</text></symbol>
</svg>
