<!-- Figma node 16084:288 — ic-book-16 -->
<svg viewBox="0 0 16 16" fill="none" xmlns="http://www.w3.org/2000/svg" aria-hidden="true">
  <g transform="translate(1.25 2.934)">
    <path d="M6.75 0.639369C8.07225 0.00572848 9.46127 -0.0751104 10.583 0.0495251C11.1995 0.118041 11.7513 0.249824 12.1904 0.396205C12.5999 0.532701 12.9931 0.708167 13.2305 0.90597C13.4014 1.04838 13.4999 1.25971 13.5 1.48214V10.1491L13.4932 10.2478C13.4632 10.4737 13.3319 10.6765 13.1328 10.7946C12.9052 10.9296 12.6229 10.9341 12.3906 10.8073C10.0419 9.52565 7.85966 10.2943 7.17676 10.7663C6.94369 10.9274 6.63933 10.9431 6.39062 10.8073C4.04188 9.52565 1.85966 10.2943 1.17676 10.7663C0.947366 10.9249 0.648332 10.9427 0.401367 10.8132C0.154599 10.6836 0 10.4279 0 10.1491V1.48214C0.000117033 1.2597 0.0986367 1.04838 0.269531 0.90597C0.506888 0.708178 0.900115 0.532703 1.30957 0.396205C1.74871 0.249825 2.30046 0.118043 2.91699 0.0495251C4.03872 -0.0751133 5.42775 0.00572437 6.75 0.639369ZM6 1.94308C5.03055 1.50778 3.98688 1.44032 3.08301 1.54074C2.57467 1.59722 2.12623 1.70505 1.78418 1.81906C1.67606 1.8551 1.58114 1.89168 1.5 1.9255V8.96456C2.63352 8.57663 4.25204 8.38436 6 8.99679V1.94308ZM10.417 1.54074C9.51312 1.44033 8.46945 1.50778 7.5 1.94308V8.96456C8.63352 8.57663 10.252 8.38436 12 8.99679V1.9255C11.9189 1.89168 11.8239 1.8551 11.7158 1.81906C11.3738 1.70505 10.9253 1.59722 10.417 1.54074Z" fill="currentColor"/>
  </g>
</svg>
