<!-- Figma node 16084:377 — ic-coin-stack-alt-16 -->
<svg viewBox="0 0 16 16" fill="none" xmlns="http://www.w3.org/2000/svg" aria-hidden="true">
  <path fill-rule="evenodd" clip-rule="evenodd" d="M5.33301 1.2998C6.31963 1.2998 7.24551 1.45841 7.9502 1.74023C8.3006 1.8804 8.63135 2.06509 8.88574 2.30566C9.14155 2.54759 9.3661 2.89457 9.36621 3.33301V5.39746C9.77657 5.33444 10.2148 5.29984 10.666 5.2998C11.6525 5.2998 12.5786 5.45848 13.2832 5.74023C13.6335 5.88036 13.9644 6.06517 14.2188 6.30566C14.4746 6.54759 14.6991 6.89457 14.6992 7.33301V12.666C14.6991 13.1044 14.4745 13.4524 14.2188 13.6943C13.9644 13.9348 13.6335 14.1197 13.2832 14.2598C12.5786 14.5415 11.6525 14.7002 10.666 14.7002C9.67972 14.7001 8.75431 14.5415 8.0498 14.2598C7.69946 14.1196 7.36861 13.9349 7.11426 13.6943C6.98441 13.5715 6.86314 13.4212 6.77441 13.2461C6.32422 13.324 5.83681 13.3662 5.33301 13.3662C4.34659 13.3662 3.42138 13.2075 2.7168 12.9258C2.36644 12.7856 2.03561 12.6009 1.78125 12.3604C1.52545 12.1184 1.2998 11.7715 1.2998 11.333V3.33301L1.31055 3.17285C1.35722 2.80947 1.55744 2.51733 1.78125 2.30566C2.03562 2.06517 2.36647 1.88037 2.7168 1.74023C3.42137 1.45851 4.34664 1.29984 5.33301 1.2998ZM13.2832 11.5928C12.5785 11.8746 11.6526 12.0332 10.666 12.0332C9.67972 12.0331 8.75431 11.8745 8.0498 11.5928C8.04413 11.5905 8.03886 11.5873 8.0332 11.585V12.627C8.15346 12.7937 8.38663 12.8869 8.56934 12.96C9.07092 13.1606 9.81212 13.3007 10.666 13.3008C11.52 13.3008 12.262 13.1606 12.7637 12.96C12.9464 12.8869 13.1784 12.7937 13.2998 12.6279V11.585C13.2942 11.5872 13.2888 11.5905 13.2832 11.5928ZM2.7002 11.293C2.70731 11.3029 2.71887 11.3208 2.74316 11.3438C2.82618 11.4222 2.9839 11.525 3.23633 11.626C3.73798 11.8266 4.47897 11.9668 5.33301 11.9668C5.80808 11.9668 6.24855 11.9219 6.63281 11.8486V10.6016C6.22227 10.6645 5.7841 10.7002 5.33301 10.7002C4.34665 10.7002 3.42137 10.5415 2.7168 10.2598C2.71117 10.2575 2.70581 10.2542 2.7002 10.252V11.293ZM13.2832 8.92578C12.5785 9.20759 11.6526 9.36621 10.666 9.36621C9.67967 9.36614 8.75432 9.20753 8.0498 8.92578C8.04413 8.92351 8.03886 8.92026 8.0332 8.91797V9.95996C8.15303 10.1268 8.38693 10.22 8.56934 10.293C9.07092 10.4936 9.81212 10.6337 10.666 10.6338C11.5201 10.6338 12.262 10.4936 12.7637 10.293C12.9462 10.22 13.1788 10.1268 13.2998 9.96094V8.91797C13.2942 8.92022 13.2888 8.92355 13.2832 8.92578ZM2.7002 8.62695C2.70742 8.63695 2.71915 8.65502 2.74316 8.67773C2.82624 8.75613 2.984 8.85903 3.23633 8.95996C3.73798 9.16058 4.47903 9.30075 5.33301 9.30078C5.80884 9.30078 6.24912 9.25479 6.63281 9.18164V7.93457C6.22207 7.99752 5.7839 8.0332 5.33301 8.0332C4.34659 8.03317 3.42138 7.87453 2.7168 7.59277C2.71113 7.59051 2.70586 7.58725 2.7002 7.58496V8.62695ZM10.666 6.7002C9.81218 6.70027 9.07092 6.83944 8.56934 7.04004C8.31671 7.14112 8.1591 7.24482 8.07617 7.32324C8.07271 7.32653 8.06945 7.32999 8.06641 7.33301C8.06955 7.33613 8.07259 7.34032 8.07617 7.34375C8.15913 7.42215 8.31686 7.52495 8.56934 7.62598C9.07092 7.82661 9.81208 7.96672 10.666 7.9668C11.5201 7.9668 12.262 7.8266 12.7637 7.62598C13.0161 7.52497 13.1739 7.42215 13.2568 7.34375C13.2601 7.34065 13.2618 7.33593 13.2646 7.33301C13.2619 7.33025 13.2599 7.32617 13.2568 7.32324C13.1738 7.24482 13.0162 7.14107 12.7637 7.04004C12.262 6.83942 11.5201 6.7002 10.666 6.7002ZM7.9502 4.92578C7.24548 5.20766 6.31973 5.36621 5.33301 5.36621C4.34654 5.36618 3.4214 5.20756 2.7168 4.92578C2.71113 4.92351 2.70586 4.92026 2.7002 4.91797V5.95996C2.70737 5.96993 2.71895 5.98785 2.74316 6.01074C2.8262 6.08916 2.98383 6.19197 3.23633 6.29297C3.73798 6.49361 4.47897 6.63375 5.33301 6.63379C5.96604 6.63379 6.53568 6.55467 6.99219 6.43359C7.03163 6.38831 7.0723 6.34536 7.11426 6.30566C7.3482 6.08448 7.64781 5.91191 7.9668 5.77637V4.91797C7.96114 4.92026 7.95587 4.92351 7.9502 4.92578ZM5.33301 2.7002C4.47903 2.70023 3.73798 2.83942 3.23633 3.04004C2.98353 3.14116 2.82612 3.24479 2.74316 3.32324C2.73963 3.32658 2.73649 3.32994 2.7334 3.33301C2.73659 3.33618 2.7395 3.34028 2.74316 3.34375C2.82615 3.42218 2.98369 3.52492 3.23633 3.62598C3.73798 3.82664 4.47893 3.96676 5.33301 3.9668C6.18723 3.9668 6.92895 3.82666 7.43066 3.62598C7.68327 3.5249 7.84091 3.42217 7.92383 3.34375C7.92717 3.34059 7.92869 3.33592 7.93164 3.33301C7.92884 3.33024 7.92698 3.32623 7.92383 3.32324C7.84088 3.2448 7.68341 3.14115 7.43066 3.04004C6.92895 2.83935 6.18723 2.7002 5.33301 2.7002Z" fill="currentColor"/>
</svg>
