<!-- Figma node 16084:497 — ic-info-16 -->
<svg viewBox="0 0 16 16" fill="none" xmlns="http://www.w3.org/2000/svg" aria-hidden="true">
  <path d="M8.75 7.5V11.5H7.25V9C6.69772 9 6.25 8.55228 6.25 8V7.5H8.75Z" fill="currentColor"/>
  <path d="M8.75 5.6C8.75 5.82091 8.57091 6 8.35 6H7.65C7.42909 6 7.25 5.82091 7.25 5.6V4.9C7.25 4.67909 7.42909 4.5 7.65 4.5H8.35C8.57091 4.5 8.75 4.67909 8.75 4.9V5.6Z" fill="currentColor"/>
  <path fill-rule="evenodd" clip-rule="evenodd" d="M8 1C11.866 1 15 4.13401 15 8C15 11.866 11.866 15 8 15C4.13401 15 1 11.866 1 8C1 4.13401 4.13401 1 8 1ZM8 2.5C4.96243 2.5 2.5 4.96243 2.5 8C2.5 11.0376 4.96243 13.5 8 13.5C11.0376 13.5 13.5 11.0376 13.5 8C13.5 4.96243 11.0376 2.5 8 2.5Z" fill="currentColor"/>
</svg>
