<!-- Figma node 16084:689 — ic-support-16 -->
<svg viewBox="0 0 16 16" fill="none" xmlns="http://www.w3.org/2000/svg" aria-hidden="true">
  <path d="M8.25 2.00684C10.2408 2.11749 11.9956 3.54048 12.6865 5.50195C13.0309 5.50286 13.2253 5.50701 13.3887 5.55078C13.906 5.68954 14.3105 6.09396 14.4492 6.61133C14.5003 6.80208 14.5 7.03501 14.5 7.5V8C14.5 8.46499 14.5003 8.69792 14.4492 8.88867C14.3105 9.40604 13.906 9.81046 13.3887 9.94922C13.2085 9.9975 12.9906 9.99888 12.5752 9.99902C11.8419 12.2398 10.2016 14 8 14C8 13.6079 8 13.4118 8.0302 13.2917C8.09489 13.0345 8.0823 13.058 8.26097 12.862C8.34439 12.7705 8.70027 12.5346 9.41202 12.063C9.77117 11.825 10.1056 11.49 10.4062 11.0586C11.0836 10.0865 11.5 8.72639 11.5 7.33301C11.4998 5.14011 9.77525 3.5 8 3.5C6.22475 3.5 4.50017 5.14011 4.5 7.33301C4.5 7.90567 4.5 8.3989 4.5 8.92279C4.5 8.99447 4.5 9.03031 4.49816 9.06055C4.46755 9.56516 4.06516 9.96755 3.56056 9.99816C3.53031 10 3.49449 10 3.42285 10L3.42188 9.99902C3.00835 9.99886 2.79108 9.99738 2.61133 9.94922C2.09396 9.81046 1.68954 9.40604 1.55078 8.88867C1.49967 8.69792 1.5 8.46499 1.5 8V7.5C1.5 7.03501 1.49967 6.80208 1.55078 6.61133C1.68954 6.09396 2.09396 5.68954 2.61133 5.55078C2.77422 5.50714 2.968 5.50288 3.31055 5.50195C4.03002 3.45832 5.90704 2 8 2L8.25 2.00684Z" fill="currentColor"/>
</svg>
