<svg viewBox="0 0 16 16" fill="none" xmlns="http://www.w3.org/2000/svg" aria-hidden="true">
  <path fill-rule="evenodd" clip-rule="evenodd" d="M6.30287 0.301798C6.47678 -0.100586 7.04729 -0.100612 7.22084 0.301798L8.87221 4.13774L13.0617 4.48539C13.5053 4.52224 13.6832 5.07623 13.3439 5.3643L12.9611 5.68852L10.1613 8.06547L11.1193 12.0909C11.215 12.4934 10.8128 12.8193 10.4494 12.6729L10.3781 12.6368L6.76284 10.4961L3.1476 12.6368C2.76793 12.8614 2.30434 12.5201 2.40639 12.0909L3.3644 8.06547L0.176898 5.36039C-0.161448 5.07294 0.0149376 4.52015 0.457171 4.48149L4.65346 4.1182L6.30287 0.301798ZM5.60659 5.44047L2.72866 5.68949L4.92494 7.55375L4.25893 10.3506L6.76284 8.8682L9.26577 10.3506L8.60073 7.55375L10.7833 5.70024L7.91909 5.46293L6.75991 2.77152L5.60659 5.44047Z" fill="currentColor"/>
</svg>
