<!-- Figma node 16084:647 — ic-share-alt-16 -->
<svg viewBox="0 0 16 16" fill="none" xmlns="http://www.w3.org/2000/svg" aria-hidden="true">
  <path d="M7.0472 1.31844C7.3138 1.19629 7.62781 1.24026 7.84993 1.43172L13.8724 6.62508C14.0237 6.75551 14.1735 6.88431 14.2894 7.00301C14.4104 7.12704 14.5502 7.29449 14.6322 7.52352C14.7426 7.8322 14.7427 8.16993 14.6322 8.47859C14.5502 8.70753 14.4104 8.87512 14.2894 8.9991C14.1735 9.11778 14.0237 9.24663 13.8724 9.37703L7.84993 14.5684C7.62779 14.7599 7.31381 14.8039 7.0472 14.6817C6.7808 14.5595 6.6097 14.2932 6.6097 14.0001V10.8634C6.03444 10.9852 5.46328 11.1885 4.91145 11.4532C3.98059 11.8998 3.2103 12.4151 2.60384 13.1456C2.40198 13.3888 2.06906 13.4795 1.7718 13.3721C1.47478 13.2648 1.27682 12.9829 1.27669 12.6671V12.3673L1.2845 12.0362C1.3612 10.3876 2.00333 8.81167 3.10774 7.57625C4.042 6.53122 5.25979 5.76554 6.6097 5.39949V2.00008C6.6097 1.70694 6.7808 1.44069 7.0472 1.31844ZM8.1097 6.00008C8.1097 6.36435 7.84836 6.67646 7.48958 6.73934C6.23938 6.95805 5.08618 7.61394 4.22591 8.57625C3.6459 9.22509 3.22638 9.99222 2.99251 10.8165C3.39853 10.5459 3.82454 10.311 4.26302 10.1007C5.19646 9.65291 6.23084 9.32522 7.30891 9.25203C7.51617 9.23797 7.72061 9.3104 7.87239 9.45223C8.02403 9.59404 8.1097 9.79245 8.1097 10.0001V12.3634L12.8929 8.24031C13.0207 8.13015 13.1032 8.05643 13.1624 8.00106C13.1031 7.9456 13.021 7.87126 12.8929 7.76082L8.1097 3.6368V6.00008Z" fill="currentColor"/>
</svg>
