<!-- Figma node 2415:3831 — tech-lock -->
<svg viewBox="0 0 16 16" fill="none" xmlns="http://www.w3.org/2000/svg" aria-hidden="true">
  <path d="M8.00005 11.0001C8.55233 11.0001 9.00005 10.5523 9.00005 10.0001C9.00005 9.44778 8.55233 9.00006 8.00005 9.00006C7.44776 9.00006 7.00005 9.44778 7.00005 10.0001C7.00005 10.5523 7.44776 11.0001 8.00005 11.0001Z" fill="currentColor"/>
  <path fill-rule="evenodd" clip-rule="evenodd" d="M5.30005 5.00005C5.30005 3.50888 6.50888 2.30005 8.00005 2.30005C9.49122 2.30005 10.7 3.50888 10.7 5.00005V6.30005H11.5C11.8866 6.30005 12.2 6.61345 12.2 7.00005V13C12.2 13.3866 11.8866 13.7 11.5 13.7H4.50005C4.11345 13.7 3.80005 13.3866 3.80005 13V7.00005C3.80005 6.61345 4.11345 6.30005 4.50005 6.30005H5.30005V5.00005ZM9.30005 5.00005V6.30005H6.70005V5.00005C6.70005 4.28208 7.28208 3.70005 8.00005 3.70005C8.71802 3.70005 9.30005 4.28208 9.30005 5.00005ZM5.20005 7.70005H10.8V12.3H5.20005V7.70005Z" fill="currentColor"/>
</svg>
